<svg xmlns="http://www.w3.org/2000/svg" width="239.3" height="225.8" viewBox="0 0 239.3 225.8"><style type="text/css">.st0{fill:#00B2E1;}</style><path class="st0" d="M186.6 57.2c8.7 10.4 15.3 23.7 14.9 37.5-.4 14.8-7.9 27-19.5 35.8-.3.3-4.6 2.8-4.6 3.1 2.3 26 30.4 44.8 30.4 44.8-10 25.1-35.5 8.6-35.5 8.6-18.4-11.4-29.5-47.6-29.5-47.6-2.8 17-18.8 35.7-18.8 35.7-34.1 36.1-69.7 8.2-69.7 8.2-22.3-18.3-28.2-48.7-22.8-76.3 2.8-14.4 9.3-26.5 18.8-37.6 17.2-20 43.6-30.1 69.2-33.6 11.4-1.6 23.2-1.7 34.4 1 12.8 3.1 24.3 10.3 32.7 20.4zm-27.2 65.4c10.1-20.9 4.1-50.1-16.2-62.9 0 0-37.5-23.5-74.8 10.9 0 0-28.8 24.8-22.5 65.3 3.2 20.4 19 43.4 42.7 38.5 16.3-3.3 23.3-18.3 25.2-33.4 1.3-10.3-.2-20.9-4.3-30.4-4.9-11.4-13.8-21.8-25-27.4 8.4-9 22.3-16.9 34.9-12.6 7.3 2.5 12.8 8.7 16 15.7 6.2 13.3 7.9 30 8.3 44.5 0 .7 5.3.3 5.7.3 4.5-.9 8-4.3 10-8.5z" id="XMLID_6_"/></svg>