<?xml version="1.0" encoding="utf-8"?>
<!-- Generator: Adobe Illustrator 19.1.0, SVG Export Plug-In . SVG Version: 6.00 Build 0)  -->
<svg version="1.1" id="Layer_1" xmlns="http://www.w3.org/2000/svg" xmlns:xlink="http://www.w3.org/1999/xlink" x="0px" y="0px"
	 width="239.3px" height="225.8px" viewBox="0 0 239.3 225.8" style="enable-background:new 0 0 239.3 225.8;" xml:space="preserve"
	>
<style type="text/css">
	.st0{fill:#00B2E1;}
</style>
<g id="XMLID_6_">
	<g>
		<path class="st0" d="M186.6,57.2c8.7,10.4,15.3,23.7,14.9,37.5c-0.4,14.8-7.9,27-19.5,35.8c-0.3,0.3-4.6,2.8-4.6,3.1
			c2.3,26,30.4,44.8,30.4,44.8c-10,25.1-35.5,8.6-35.5,8.6c-18.4-11.4-29.5-47.6-29.5-47.6c-2.8,17-18.8,35.7-18.8,35.7
			c-34.1,36.1-69.7,8.2-69.7,8.2C32,165,26.1,134.6,31.5,107c2.8-14.4,9.3-26.5,18.8-37.6c17.2-20,43.6-30.1,69.2-33.6
			c11.4-1.6,23.2-1.7,34.4,1C166.7,39.9,178.2,47.1,186.6,57.2z M159.4,122.6c10.1-20.9,4.1-50.1-16.2-62.9c0,0-37.5-23.5-74.8,10.9
			c0,0-28.8,24.8-22.5,65.3c3.2,20.4,19,43.4,42.7,38.5c16.3-3.3,23.3-18.3,25.2-33.4c1.3-10.3-0.2-20.9-4.3-30.4
			c-4.9-11.4-13.8-21.8-25-27.4c8.4-9,22.3-16.9,34.9-12.6c7.3,2.5,12.8,8.7,16,15.7c6.2,13.3,7.9,30,8.3,44.5
			c0,0.7,5.3,0.3,5.7,0.3C153.9,130.2,157.4,126.8,159.4,122.6z"/>
	</g>
	<g>
	</g>
</g>
</svg>
