<svg xmlns="http://www.w3.org/2000/svg" width="239.3" height="225.8" viewBox="-394.6 307.1 239.3 225.8" enable-background="new -394.6 307.1 239.3 225.8"><style type="text/css">.st0{fill:#00B2E2;} .st1{fill:none;stroke:#FFFFFF;stroke-width:4.1561;stroke-miterlimit:10;} .st2{fill:none;stroke:#FFFFFF;stroke-width:3.3249;stroke-miterlimit:10;}</style><circle class="st0" cx="-274.7" cy="420" r="112.9"/><path class="st1" d="M-198.4 393.2v74.5c0 5.5-4.5 10-10 10h-132.6c-5.5 0-10-4.5-10-10v-74.5c0-5.5 4.5-10 10-10h74.3v-5c0-5.5 4.5-10 10-10h30.4c5.5 0 10 4.5 10 10v5h7.9c5.5 0 10 4.5 10 10zM-209.2 395.9v61.7c0 4.8-4.3 8.7-9.5 8.7h-121.3M-336.3 383.2l4.8-23.1 5 1.1 60.8 12.7"/><path class="st2" d="M-200.1 387.6"/><path class="st1" d="M-326.5 361.2l7.3-18.2 63 25.2"/><path class="st2" d="M-198.6 430.5v-.1"/></svg>