<?xml version="1.0" encoding="utf-8"?>
<!-- Generator: Adobe Illustrator 19.1.0, SVG Export Plug-In . SVG Version: 6.00 Build 0)  -->
<svg version="1.1" id="Layer_1" xmlns="http://www.w3.org/2000/svg" xmlns:xlink="http://www.w3.org/1999/xlink" x="0px" y="0px"
	 width="239.3px" height="225.8px" viewBox="-394.6 307.1 239.3 225.8" style="enable-background:new -394.6 307.1 239.3 225.8;"
	 xml:space="preserve">
<style type="text/css">
	.st0{fill:#00B2E2;}
	.st1{fill:none;stroke:#FFFFFF;stroke-width:4.1561;stroke-miterlimit:10;}
	.st2{fill:none;stroke:#FFFFFF;stroke-width:3.3249;stroke-miterlimit:10;}
</style>
<circle class="st0" cx="-274.7" cy="420" r="112.9"/>
<path class="st1" d="M-198.4,393.2v74.5c0,5.5-4.5,10-10,10h-132.6c-5.5,0-10-4.5-10-10v-74.5c0-5.5,4.5-10,10-10h74.3v-5
	c0-5.5,4.5-10,10-10h30.4c5.5,0,10,4.5,10,10v5h7.9C-202.9,383.2-198.4,387.7-198.4,393.2z"/>
<path class="st1" d="M-209.2,395.9v61.7c0,4.8-4.3,8.7-9.5,8.7H-340"/>
<polyline class="st1" points="-336.3,383.2 -331.5,360.1 -326.5,361.2 -265.7,373.9 "/>
<line class="st2" x1="-200.1" y1="387.6" x2="-200.1" y2="387.6"/>
<polyline class="st1" points="-326.5,361.2 -319.2,343 -256.2,368.2 "/>
<polyline class="st2" points="-198.6,430.5 -198.6,430.4 -198.6,430.4 "/>
</svg>
