<?xml version="1.0" encoding="utf-8"?>
<!-- Generator: Adobe Illustrator 19.1.0, SVG Export Plug-In . SVG Version: 6.00 Build 0)  -->
<svg version="1.1" id="Layer_1" xmlns="http://www.w3.org/2000/svg" xmlns:xlink="http://www.w3.org/1999/xlink" x="0px" y="0px"
	 width="239.3px" height="225.8px" viewBox="-394.6 307.1 239.3 225.8" style="enable-background:new -394.6 307.1 239.3 225.8;"
	 xml:space="preserve">
<style type="text/css">
	.st0{fill:#00B2E2;}
	.st1{fill:none;stroke:#FFFFFF;stroke-width:3.3249;stroke-miterlimit:10;}
</style>
<circle class="st0" cx="-275.7" cy="420" r="112.9"/>
<circle class="st1" cx="-274.9" cy="424.7" r="57.1"/>
<circle class="st1" cx="-274.9" cy="424.7" r="46.2"/>
<polyline class="st1" points="-274.9,387.5 -274.9,424.7 -255.8,424.7 "/>
<path class="st1" d="M-270.1,367.8v-17.3c2.7-1,4.4-2.8,4.4-4.9c0-3.2-4.2-5.9-9.3-5.9c-3.2,0-9.1,1.4-9.3,5.5
	c-0.1,2.4,2.6,4.4,4.4,5.6v17"/>
<path class="st1" d="M-329.8,409c-5.7,0.6-11.2-0.8-15.3-4.4c-9-7.9-8.3-23.4,1.6-34.6c9.9-11.1,25.1-13.7,34.1-5.7
	c3.3,2.9,5.2,6.7,5.9,11"/>
<path class="st1" d="M-248.6,374c0.9-3.8,2.7-7.2,5.7-9.8c9-8,24.2-5.4,34.1,5.7c9.9,11.2,10.6,26.6,1.6,34.6
	c-3.5,3.1-8,4.6-12.7,4.6"/>
<path class="st1" d="M-236.7,467.2c0.3,0.3,0.5,0.7,0.7,1c7.8,11.5,11.7,22.5,8.6,24.5c-3,2.1-11.9-5.5-19.7-17
	c-0.2-0.3-0.4-0.6-0.6-0.8"/>
<path class="st1" d="M-311.6,468.5c-7.7,11.3-11.5,22.2-8.4,24.2c3.1,2.1,11.8-5.4,19.6-16.9"/>
</svg>
