<svg xmlns="http://www.w3.org/2000/svg" width="239.3" height="225.8" viewBox="-394.6 307.1 239.3 225.8" enable-background="new -394.6 307.1 239.3 225.8"><style type="text/css">.st0{fill:#00B2E2;} .st1{fill:none;stroke:#FFFFFF;stroke-width:3.3249;stroke-miterlimit:10;}</style><circle class="st0" cx="-275.7" cy="420" r="112.9"/><circle class="st1" cx="-274.9" cy="424.7" r="57.1"/><circle class="st1" cx="-274.9" cy="424.7" r="46.2"/><path class="st1" d="M-274.9 387.5v37.2h19.1m-14.3-56.9v-17.3c2.7-1 4.4-2.8 4.4-4.9 0-3.2-4.2-5.9-9.3-5.9-3.2 0-9.1 1.4-9.3 5.5-.1 2.4 2.6 4.4 4.4 5.6v17m-49.9 41.2c-5.7.6-11.2-.8-15.3-4.4-9-7.9-8.3-23.4 1.6-34.6 9.9-11.1 25.1-13.7 34.1-5.7 3.3 2.9 5.2 6.7 5.9 11m54.9-1.3c.9-3.8 2.7-7.2 5.7-9.8 9-8 24.2-5.4 34.1 5.7 9.9 11.2 10.6 26.6 1.6 34.6-3.5 3.1-8 4.6-12.7 4.6m-16.8 58.1c.3.3.5.7.7 1 7.8 11.5 11.7 22.5 8.6 24.5-3 2.1-11.9-5.5-19.7-17-.2-.3-.4-.6-.6-.8m-63.9-6.4c-7.7 11.3-11.5 22.2-8.4 24.2 3.1 2.1 11.8-5.4 19.6-16.9"/></svg>