<svg xmlns="http://www.w3.org/2000/svg" width="239.3" height="225.8" viewBox="-394.6 307.1 239.3 225.8" enable-background="new -394.6 307.1 239.3 225.8"><style type="text/css">.st0{fill:#00B2E2;} .st1{fill:none;stroke:#FFFFFF;stroke-width:7;stroke-miterlimit:10;} .st2{fill:none;stroke:#FFFFFF;stroke-width:3;stroke-miterlimit:10;}</style><circle class="st0" cx="-274.7" cy="420" r="112.9"/><circle class="st1" cx="-228.4" cy="465.6" r="30.1"/><path class="st1" d="M-247.9 442.6l39 45.9"/><path class="st2" d="M-267.3 351.5s-11.3 19.1-32.7 24.2c0 0-21.4 13.5-2.8 32.1 0 0-16.3-10.1-16.3-24.8 0 0-11.3-51.8 45.6-57.4 0 0 41.9 19.7 26.5 62.5 0 0-5.6 15.2-13 19.7.1 0 16.4-38.8-7.3-56.3zm-40 31.7s23.3 57.6 52.8 0m5.2 60.7l12-7.1-12-28-8.9-2.3m-46.5 0l-8.1 1.3-13.9 29.9 20.6 7.8-11.8 14.7 26.8 28.4h19.3l14-16.3m-44.9-64.5l-4.6 11.7 20.5 62.9h10.2l20.4-62.7-3.7-11.9m-46 8.1s25.4 21.4 48.5 0m-55.4-8.1s-43.2 9.9-41 57.7c0 0 7.6 14.1 23.7 9.9 0 0 12.8 11.5 39 13.1m19.3.1c8-.4 14.8-1.9 20.2-3.7m2.3-76.1s24.4 7.5 34.6 30"/></svg>