<?xml version="1.0" encoding="utf-8"?>
<!-- Generator: Adobe Illustrator 19.1.0, SVG Export Plug-In . SVG Version: 6.00 Build 0)  -->
<svg version="1.1" id="Layer_1" xmlns="http://www.w3.org/2000/svg" xmlns:xlink="http://www.w3.org/1999/xlink" x="0px" y="0px"
	 width="239.3px" height="225.8px" viewBox="-394.6 307.1 239.3 225.8" style="enable-background:new -394.6 307.1 239.3 225.8;"
	 xml:space="preserve">
<style type="text/css">
	.st0{fill:#00B2E2;}
	.st1{fill:none;stroke:#FFFFFF;stroke-width:7;stroke-miterlimit:10;}
	.st2{fill:none;stroke:#FFFFFF;stroke-width:3;stroke-miterlimit:10;}
</style>
<circle class="st0" cx="-274.7" cy="420" r="112.9"/>
<circle class="st1" cx="-228.4" cy="465.6" r="30.1"/>
<line class="st1" x1="-247.9" y1="442.6" x2="-208.9" y2="488.5"/>
<path class="st2" d="M-267.3,351.5c0,0-11.3,19.1-32.7,24.2c0,0-21.4,13.5-2.8,32.1c0,0-16.3-10.1-16.3-24.8
	c0,0-11.3-51.8,45.6-57.4c0,0,41.9,19.7,26.5,62.5c0,0-5.6,15.2-13,19.7C-259.9,407.8-243.6,369-267.3,351.5z"/>
<path class="st2" d="M-307.3,383.2c0,0,23.3,57.6,52.8,0"/>
<line class="st2" x1="-249.3" y1="443.9" x2="-249.3" y2="443.9"/>
<polyline class="st2" points="-237.3,436.8 -249.3,408.8 -258.2,406.5 "/>
<polyline class="st2" points="-304.7,406.5 -312.8,407.8 -326.7,437.7 -306.1,445.5 -317.9,460.2 -291.1,488.6 -271.8,488.6 
	-257.8,472.3 "/>
<polyline class="st2" points="-302.7,407.8 -307.3,419.5 -286.8,482.4 -276.6,482.4 -256.2,419.7 -259.9,407.8 "/>
<path class="st2" d="M-305.9,415.9c0,0,25.4,21.4,48.5,0"/>
<path class="st2" d="M-312.8,407.8c0,0-43.2,9.9-41,57.7c0,0,7.6,14.1,23.7,9.9c0,0,12.8,11.5,39,13.1"/>
<path class="st2" d="M-271.8,488.6c8-0.4,14.8-1.9,20.2-3.7"/>
<path class="st2" d="M-249.3,408.8c0,0,24.4,7.5,34.6,30"/>
</svg>
