<?xml version="1.0" encoding="utf-8"?>
<!-- Generator: Adobe Illustrator 19.1.0, SVG Export Plug-In . SVG Version: 6.00 Build 0)  -->
<svg version="1.1" id="Layer_1" xmlns="http://www.w3.org/2000/svg" xmlns:xlink="http://www.w3.org/1999/xlink" x="0px" y="0px"
	 width="239.3px" height="225.8px" viewBox="-394.6 307.1 239.3 225.8" style="enable-background:new -394.6 307.1 239.3 225.8;"
	 xml:space="preserve">
<style type="text/css">
	.st0{fill:#00B2E2;}
	.st1{fill:none;stroke:#FFFFFF;stroke-width:3.3249;stroke-miterlimit:10;}
	.st2{fill:none;stroke:#FFFFFF;stroke-width:3;stroke-miterlimit:10;}
	.st3{fill:none;stroke:#FFFFFF;stroke-width:2;stroke-miterlimit:10;}
	.st4{fill:none;stroke:#FFFFFF;stroke-width:2.4937;stroke-linecap:round;stroke-miterlimit:10;}
</style>
<circle class="st0" cx="-275.7" cy="420" r="112.9"/>
<polyline class="st1" points="-311.3,443.4 -279.6,443.4 -257,443.4 -226.4,443.4 "/>
<path class="st1" d="M-331.7,388.4v-23.6c0-3.8,3.1-6.9,6.9-6.9h114.9c3.8,0,6.9,3.1,6.9,6.9v54.1"/>
<line class="st1" x1="-226.4" y1="437.6" x2="-311.3" y2="437.6"/>
<path class="st1" d="M-324.6,388.4v-16.9c0-3.8,3.1-6.9,6.9-6.9h100.8c3.8,0,6.9,3.1,6.9,6.9v47.4"/>
<path class="st1" d="M-313.1,477.4h-51c-1,0-1.9-0.8-1.9-1.9v-85.3c0-1,0.8-1.9,1.9-1.9h51c1,0,1.9,0.8,1.9,1.9v85.3
	C-311.3,476.6-312.1,477.4-313.1,477.4z"/>
<path class="st2" d="M-319.2,463.3H-358c-0.9,0-1.7-0.8-1.7-1.7v-63.7c0-0.9,0.8-1.7,1.7-1.7h38.8c0.9,0,1.7,0.8,1.7,1.7v63.7
	C-317.5,462.5-318.3,463.3-319.2,463.3z"/>
<path class="st1" d="M-192.2,477.4h-32.6c-0.9,0-1.6-0.7-1.6-1.6v-55.4c0-0.9,0.7-1.6,1.6-1.6h32.6c0.9,0,1.6,0.7,1.6,1.6v55.4
	C-190.6,476.7-191.3,477.4-192.2,477.4z"/>
<path class="st2" d="M-196.2,464.7h-24.5c-0.6,0-1.1-0.5-1.1-1.1v-35.7c0-0.6,0.5-1.1,1.1-1.1h24.5c0.6,0,1.1,0.5,1.1,1.1v35.7
	C-195.1,464.2-195.6,464.7-196.2,464.7z"/>
<circle class="st3" cx="-208.5" cy="471.2" r="2.5"/>
<circle class="st3" cx="-338.6" cy="470.6" r="2.5"/>
<path class="st1" d="M-257,443.4c2.8,8.4,9.1,26.8,9.1,28.7c0,3-2.4,5.4-5.4,5.4H-283c-3,0-5.4-2.4-5.4-5.4c0-2.7,7.4-24,8.7-28.2
	c0-0.1,0.1-0.2,0.1-0.4"/>
<line class="st4" x1="-355.9" y1="405.8" x2="-349.8" y2="401"/>
<line class="st4" x1="-356" y1="413.1" x2="-341.9" y2="401.1"/>
<line class="st4" x1="-218" y1="435.2" x2="-212.4" y2="430.7"/>
<line class="st4" x1="-218" y1="441.3" x2="-206" y2="431.1"/>
<line class="st4" x1="-316.7" y1="380.2" x2="-306.4" y2="371.9"/>
<line class="st4" x1="-291.2" y1="371.2" x2="-311.5" y2="389.2"/>
</svg>
