<?xml version="1.0" encoding="utf-8"?>
<!-- Generator: Adobe Illustrator 19.1.0, SVG Export Plug-In . SVG Version: 6.00 Build 0)  -->
<svg version="1.1" id="Layer_1" xmlns="http://www.w3.org/2000/svg" xmlns:xlink="http://www.w3.org/1999/xlink" x="0px" y="0px"
	 width="239.3px" height="225.8px" viewBox="-394.6 307.1 239.3 225.8" style="enable-background:new -394.6 307.1 239.3 225.8;"
	 xml:space="preserve">
<style type="text/css">
	.st0{fill:#00B2E2;}
	.st1{fill:none;stroke:#FFFFFF;stroke-width:4.156;stroke-miterlimit:10;}
	.st2{fill:none;stroke:#FFFFFF;stroke-width:4.156;stroke-linecap:round;stroke-miterlimit:10;}
	.st3{fill:none;stroke:#FFFFFF;stroke-width:3.3248;stroke-miterlimit:10;}
</style>
<circle class="st0" cx="-275" cy="420" r="112.9"/>
<path class="st1" d="M-255.1,379c3.2,3.5,22.9,25.1,24.6,26.9c1.5,1.7,3.2,3.2,3.6,5.6c0.5,2.8-1.1,5.6-3.4,7.6l-85.3,77.9
	c0,0-7.5,7.8-14.3,1c-7.3-8-14.5-16-21.8-23.8c-4.4-4.7-11.6-10.3-3.4-17.4c26.8-24.5,53.5-49.1,80.4-73.5
	C-267.4,376.8-262,371.5-255.1,379z"/>
<path class="st2" d="M-237.5,414.4c-0.3,0.4-0.7,0.8-1.2,1.2l-77.1,70.3c0,0-6.8,7-12.6,1.2c-6.2-6.8-12.3-13.6-18.6-20.3
	c-0.6-0.7-1.4-1.4-2.1-2.2"/>
<path class="st1" d="M-228.4,408.2l3.5-3.2c1.6-1.5,2.7-3.5,2.3-5.6c-0.3-1.8-1.6-2.9-2.8-4.2c-1.3-1.4-16.2-17.7-18.6-20.4
	c-4.9-5.4-8.6-2.3-13.4,2"/>
<polyline class="st1" points="-223.2,398 -194.8,372.1 -217.1,347.6 -245.5,373.5 "/>
<rect x="-228.4" y="360.5" transform="matrix(-0.6741 -0.7387 0.7387 -0.6741 -647.369 448.5378)" class="st3" width="7.4" height="13.2"/>
<rect x="-219" y="370.8" transform="matrix(-0.6741 -0.7387 0.7387 -0.6741 -639.2655 472.7233)" class="st3" width="7.4" height="13.2"/>
</svg>
