<svg xmlns="http://www.w3.org/2000/svg" width="239.3" height="225.8" viewBox="-394.6 307.1 239.3 225.8" enable-background="new -394.6 307.1 239.3 225.8"><style type="text/css">.st0{fill:#00B2E2;} .st1{fill:none;stroke:#FFFFFF;stroke-width:4.156;stroke-miterlimit:10;} .st2{fill:none;stroke:#FFFFFF;stroke-width:4.156;stroke-linecap:round;stroke-miterlimit:10;} .st3{fill:none;stroke:#FFFFFF;stroke-width:3.3248;stroke-miterlimit:10;}</style><circle class="st0" cx="-275" cy="420" r="112.9"/><path class="st1" d="M-255.1 379c3.2 3.5 22.9 25.1 24.6 26.9 1.5 1.7 3.2 3.2 3.6 5.6.5 2.8-1.1 5.6-3.4 7.6l-85.3 77.9s-7.5 7.8-14.3 1c-7.3-8-14.5-16-21.8-23.8-4.4-4.7-11.6-10.3-3.4-17.4 26.8-24.5 53.5-49.1 80.4-73.5 7.3-6.5 12.7-11.8 19.6-4.3z"/><path class="st2" d="M-237.5 414.4c-.3.4-.7.8-1.2 1.2l-77.1 70.3s-6.8 7-12.6 1.2c-6.2-6.8-12.3-13.6-18.6-20.3l-2.1-2.2"/><path class="st1" d="M-228.4 408.2l3.5-3.2c1.6-1.5 2.7-3.5 2.3-5.6-.3-1.8-1.6-2.9-2.8-4.2-1.3-1.4-16.2-17.7-18.6-20.4-4.9-5.4-8.6-2.3-13.4 2M-223.2 398l28.4-25.9-22.3-24.5-28.4 25.9"/><path class="st3" d="M-227.103 374.244l-4.988-5.466 9.751-8.898 4.988 5.466zM-217.728 384.542l-4.988-5.466 9.751-8.898 4.988 5.466z"/></svg>