<?xml version="1.0" encoding="utf-8"?>
<!-- Generator: Adobe Illustrator 19.1.0, SVG Export Plug-In . SVG Version: 6.00 Build 0)  -->
<svg version="1.1" id="Layer_1" xmlns="http://www.w3.org/2000/svg" xmlns:xlink="http://www.w3.org/1999/xlink" x="0px" y="0px"
	 width="239.3px" height="225.8px" viewBox="-394.6 307.1 239.3 225.8" style="enable-background:new -394.6 307.1 239.3 225.8;"
	 xml:space="preserve">
<style type="text/css">
	.st0{fill:#00B2E2;}
	.st1{fill:none;stroke:#FFFFFF;stroke-width:2.5;stroke-miterlimit:10;}
</style>
<circle class="st0" cx="-275.7" cy="420" r="112.9"/>
<path class="st1" d="M-247.9,411.3C-247.9,411.3-247.9,411.3-247.9,411.3c0.4-0.3,0.8-0.6,1.2-0.9c4.6-4,8-13.1,8-13.1
	c11-30.4-18.8-44.4-18.8-44.4c-12.9,1.3-20.9,5.9-25.8,11.7"/>
<path class="st1" d="M-289.1,398.6c2,5.7,7,10,9.4,11.8c0.8,0.6,1.4,0.9,1.4,0.9c-7.3-7.3-5.9-13.4-3.3-17.5
	c2.2-3.4,5.3-5.3,5.3-5.3c15.2-3.6,23.2-17.2,23.2-17.2c16.5,12.2,5.6,39,5.2,40"/>
<path class="st1" d="M-281.6,393.8c0,0,16.6,40.9,37.5,0"/>
<line class="st1" x1="-256.4" y1="468.7" x2="-263.4" y2="468.7"/>
<polyline class="st1" points="-252.1,405.9 -247.9,411.3 -246.2,417.1 -245.3,419.8 -252.4,441.5 "/>
<polyline class="st1" points="-274.2,405.9 -278.4,411.3 -279.5,414.2 "/>
<path class="st1" d="M-264.1,423.8c5.5,0.4,11.9-1.1,17.9-6.7"/>
<path class="st1" d="M-240.4,412c0,0,31.3,9.7,27.5,41.8c0,0-6.2,9.3-17.9,6.7c0,0-9,7.5-25.5,8.3"/>
<path class="st1" d="M-333,366.5c1-6.8,3.5-12.7,7.7-16.3c5.6-4.8,12.2-5.4,19.2-5.8c17.2-0.9,24.5,15.7,23.3,30.6
	c-1.1,13.6-7.2,35.5-23.6,37C-325.6,413.7-336,386.4-333,366.5z"/>
<path class="st1" d="M-238.8,372.2c0.4-0.5,0.9-1,1.4-1.5c3.8-3.2,8.2-3.6,12.9-3.9c11.6-0.6,16.5,10.5,15.7,20.6
	c-0.1,1.4-0.3,2.8-0.6,4.4c-0.4,2.2-1,4.6-1.8,7c-1.2,3.4-2.8,6.7-5.1,9.2c-2.2,2.4-5,4.1-8.5,4.4c-4.3,0.4-8-1.4-10.9-4.5
	c-1.8-2-3.4-4.5-4.5-7.3"/>
<path class="st1" d="M-327.4,412.1c0,0-42.9,12.4-38.3,50.3c0,0,5.5,8.9,19,5.5c0,0,33.4,26.3,78.8,0.8c0,0,12.3,1.4,20.5-6.3
	c0,0-1.5-43.4-40.1-50.3C-287.6,412.1-303.2,431.9-327.4,412.1z"/>
<line class="st1" x1="-268" y1="468.7" x2="-268" y2="441"/>
<line class="st1" x1="-346.8" y1="468" x2="-346.8" y2="441"/>
<path class="st1" d="M-215.1,456.2L-215.1,456.2c5-1.1,10.3-3.1,15.9-6.3c0,0,8.3,0.9,13.8-4.2c0,0-1-29.2-27-33.8
	c0,0-6.9,8.8-18.2,5"/>
<path class="st1" d="M-239.2,411.9c0,0-0.3,0.1-0.8,0.3l-6.3-2.1"/>
<line class="st1" x1="-199.2" y1="449.9" x2="-199.2" y2="431.3"/>
<polyline class="st1" points="-308.1,420.8 -319.1,435.4 -327.4,412.1 -322.3,405.6 "/>
<polyline class="st1" points="-304,420.8 -295.1,435.4 -287.6,412.1 -293.4,405 "/>
<path class="st1" d="M-333.4,376.8c19.9,0.7,25.3-13.9,25.3-13.9s3.1,14,25.1,14"/>
<path class="st1" d="M-236.5,387.5c4.8-0.5,11.5-2,17.2-6.8c0,0,4.1,6.1,10.5,6.6"/>
<line class="st1" x1="-306.2" y1="420.9" x2="-306.2" y2="446"/>
<path class="st1" d="M-332.9,381.6c-1-0.7-2-1-3-0.6c-1.9,0.8-2.3,4.1-1,7.3c1.3,3.3,4,5.3,5.8,4.5c0.3-0.1,0.5-0.3,0.8-0.5"/>
<path class="st1" d="M-283.6,381.8c1.1-0.9,2.2-1.2,3.1-0.8c1.9,0.8,2.3,4.1,1,7.3c-1.3,3.3-4,5.3-5.8,4.5c-0.4-0.2-0.7-0.4-0.9-0.7
	"/>
<path class="st1" d="M-209.3,391.8c0.7-0.6,1.5-0.8,2.1-0.5c1.3,0.5,1.5,2.7,0.6,4.9c-0.9,2.2-2.6,3.6-3.9,3
	c-0.2-0.1-0.4-0.3-0.6-0.5"/>
<line class="st1" x1="-235.5" y1="407.7" x2="-239.2" y2="411.8"/>
<line class="st1" x1="-212.4" y1="411.8" x2="-216.2" y2="407.9"/>
<line class="st1" x1="-230.9" y1="460.4" x2="-230.9" y2="446"/>
</svg>
