<svg xmlns="http://www.w3.org/2000/svg" width="239.3" height="225.8" viewBox="-394.6 307.1 239.3 225.8" enable-background="new -394.6 307.1 239.3 225.8"><style type="text/css">.st0{fill:#00B2E2;} .st1{fill:none;stroke:#FFFFFF;stroke-width:2.5;stroke-miterlimit:10;}</style><circle class="st0" cx="-275.7" cy="420" r="112.9"/><path class="st1" d="M-247.9 411.3l1.2-.9c4.6-4 8-13.1 8-13.1 11-30.4-18.8-44.4-18.8-44.4-12.9 1.3-20.9 5.9-25.8 11.7M-289.1 398.6c2 5.7 7 10 9.4 11.8.8.6 1.4.9 1.4.9-7.3-7.3-5.9-13.4-3.3-17.5 2.2-3.4 5.3-5.3 5.3-5.3 15.2-3.6 23.2-17.2 23.2-17.2 16.5 12.2 5.6 39 5.2 40M-281.6 393.8s16.6 40.9 37.5 0M-256.4 468.7h-7M-252.1 405.9l4.2 5.4 1.7 5.8.9 2.7-7.1 21.7M-274.2 405.9l-4.2 5.4-1.1 2.9M-264.1 423.8c5.5.4 11.9-1.1 17.9-6.7M-240.4 412s31.3 9.7 27.5 41.8c0 0-6.2 9.3-17.9 6.7 0 0-9 7.5-25.5 8.3"/><path class="st1" d="M-333 366.5c1-6.8 3.5-12.7 7.7-16.3 5.6-4.8 12.2-5.4 19.2-5.8 17.2-.9 24.5 15.7 23.3 30.6-1.1 13.6-7.2 35.5-23.6 37-19.2 1.7-29.6-25.6-26.6-45.5zM-238.8 372.2c.4-.5.9-1 1.4-1.5 3.8-3.2 8.2-3.6 12.9-3.9 11.6-.6 16.5 10.5 15.7 20.6-.1 1.4-.3 2.8-.6 4.4-.4 2.2-1 4.6-1.8 7-1.2 3.4-2.8 6.7-5.1 9.2-2.2 2.4-5 4.1-8.5 4.4-4.3.4-8-1.4-10.9-4.5-1.8-2-3.4-4.5-4.5-7.3"/><path class="st1" d="M-327.4 412.1s-42.9 12.4-38.3 50.3c0 0 5.5 8.9 19 5.5 0 0 33.4 26.3 78.8.8 0 0 12.3 1.4 20.5-6.3 0 0-1.5-43.4-40.1-50.3-.1 0-15.7 19.8-39.9 0zM-268 468.7v-27.7M-346.8 468v-27M-215.1 456.2c5-1.1 10.3-3.1 15.9-6.3 0 0 8.3.9 13.8-4.2 0 0-1-29.2-27-33.8 0 0-6.9 8.8-18.2 5M-239.2 411.9s-.3.1-.8.3l-6.3-2.1M-199.2 449.9v-18.6M-308.1 420.8l-11 14.6-8.3-23.3 5.1-6.5M-304 420.8l8.9 14.6 7.5-23.3-5.8-7.1M-333.4 376.8c19.9.7 25.3-13.9 25.3-13.9s3.1 14 25.1 14M-236.5 387.5c4.8-.5 11.5-2 17.2-6.8 0 0 4.1 6.1 10.5 6.6M-306.2 420.9v25.1M-332.9 381.6c-1-.7-2-1-3-.6-1.9.8-2.3 4.1-1 7.3 1.3 3.3 4 5.3 5.8 4.5.3-.1.5-.3.8-.5M-283.6 381.8c1.1-.9 2.2-1.2 3.1-.8 1.9.8 2.3 4.1 1 7.3-1.3 3.3-4 5.3-5.8 4.5-.4-.2-.7-.4-.9-.7M-209.3 391.8c.7-.6 1.5-.8 2.1-.5 1.3.5 1.5 2.7.6 4.9s-2.6 3.6-3.9 3c-.2-.1-.4-.3-.6-.5M-235.5 407.7l-3.7 4.1M-212.4 411.8l-3.8-3.9M-230.9 460.4v-14.4"/></svg>