<svg xmlns="http://www.w3.org/2000/svg" width="239.3" height="225.8" viewBox="-394.6 307.1 239.3 225.8" enable-background="new -394.6 307.1 239.3 225.8"><style type="text/css">.st0{fill:#00B2E2;} .st1{fill:none;stroke:#FFFFFF;stroke-width:3.3249;stroke-miterlimit:10;} .st2{fill:none;stroke:#FFFFFF;stroke-width:2.4937;stroke-miterlimit:10;} .st3{fill:none;stroke:#FFFFFF;stroke-width:3.3249;stroke-linecap:round;stroke-miterlimit:10;} .st4{fill:none;stroke:#FFFFFF;stroke-width:2.4937;stroke-linecap:round;stroke-miterlimit:10;}</style><circle class="st0" cx="-274.7" cy="420" r="112.9"/><path class="st1" d="M-282.1 437.4v35.1c0 7.5 6.2 13.7 13.7 13.7h47c7.5 0 13.7-6.2 13.7-13.7v-109.8c0-7.5-6.2-13.7-13.7-13.7h-47c-7.5 0-13.7 6.2-13.7 13.7v38.9m10.2 29.9v26.1c0 4.5 3.7 8.1 8.1 8.1h37.8c4.5 0 8.1-3.6 8.1-8.1v-85.2c0-4.5-3.6-8.1-8.1-8.1h-37.8c-4.5 0-8.1 3.6-8.1 8.1v35.2"/><circle class="st2" cx="-244.9" cy="475.7" r="5.5"/><path class="st3" d="M-265.3 380l11-8.9m-12.6 20.1l23.6-20.1"/><path class="st4" d="M-257.8 357.2h25.7"/><path class="st1" d="M-303.6 449.8v-15.6h-29.3v-29.4h29.3v-15.6l52.4 30.3z"/><path class="st3" d="M-341.2 405.4v28m-8.3-28v28m-8.2-27.8v28m-8.3-28v28"/></svg>