<?xml version="1.0" encoding="utf-8"?>
<!-- Generator: Adobe Illustrator 19.1.0, SVG Export Plug-In . SVG Version: 6.00 Build 0)  -->
<svg version="1.1" id="Layer_1" xmlns="http://www.w3.org/2000/svg" xmlns:xlink="http://www.w3.org/1999/xlink" x="0px" y="0px"
	 width="239.3px" height="225.8px" viewBox="-394.6 307.1 239.3 225.8" style="enable-background:new -394.6 307.1 239.3 225.8;"
	 xml:space="preserve">
<style type="text/css">
	.st0{fill:#00B2E2;}
	.st1{fill:none;stroke:#FFFFFF;stroke-width:3.3249;stroke-miterlimit:10;}
	.st2{fill:none;stroke:#FFFFFF;stroke-width:2.4937;stroke-miterlimit:10;}
	.st3{fill:none;stroke:#FFFFFF;stroke-width:3.3249;stroke-linecap:round;stroke-miterlimit:10;}
	.st4{fill:none;stroke:#FFFFFF;stroke-width:2.4937;stroke-linecap:round;stroke-miterlimit:10;}
</style>
<circle class="st0" cx="-274.7" cy="420" r="112.9"/>
<path class="st1" d="M-282.1,437.4v35.1c0,7.5,6.2,13.7,13.7,13.7h47c7.5,0,13.7-6.2,13.7-13.7V362.7c0-7.5-6.2-13.7-13.7-13.7h-47
	c-7.5,0-13.7,6.2-13.7,13.7v38.9"/>
<path class="st1" d="M-271.9,431.5v26.1c0,4.5,3.7,8.1,8.1,8.1h37.8c4.5,0,8.1-3.6,8.1-8.1v-85.2c0-4.5-3.6-8.1-8.1-8.1h-37.8
	c-4.5,0-8.1,3.6-8.1,8.1v35.2"/>
<circle class="st2" cx="-244.9" cy="475.7" r="5.5"/>
<line class="st3" x1="-265.3" y1="380" x2="-254.3" y2="371.1"/>
<line class="st3" x1="-266.9" y1="391.2" x2="-243.3" y2="371.1"/>
<line class="st4" x1="-257.8" y1="357.2" x2="-232.1" y2="357.2"/>
<polygon class="st1" points="-303.6,449.8 -303.6,434.2 -332.9,434.2 -332.9,404.8 -303.6,404.8 -303.6,389.2 -251.2,419.5 "/>
<line class="st3" x1="-341.2" y1="405.4" x2="-341.2" y2="433.4"/>
<line class="st3" x1="-349.5" y1="405.4" x2="-349.5" y2="433.4"/>
<line class="st3" x1="-357.7" y1="405.6" x2="-357.7" y2="433.6"/>
<line class="st3" x1="-366" y1="405.6" x2="-366" y2="433.6"/>
</svg>
